 http://img40.imageshack.us/img40/8376/acolddayiheqe.jpg

Country.......: USA
Genre.........: Western
Date release..: 2011 [World]
Director......: Christopher Forbes
Writers.......: Christopher Forbes, Jim Hilton
Duration......: 96 min.
More..........: http://www.imdb.com/title/tt1843834
Trailer.......: http://www.imdb.com/video/screenplay/vi2362285337
Trailer.......:

Pilot :
Sierra Nevada, the year 1887. A former soldier of the Civil War, Willian Drayton, loses his wife and child. Sutured in the depths of the country to hear about it disappeared. But anyone looking for him. This is Elizabeth, his daughter, who according to him should not live. At the same time, Baron Scarsdale with the help of his men build rail empire. Dayton, along with her daughter and friends begin to fight.

Cats :
Ronald Bumgardner   	 ...  	Tether
Kimberly Campbell 	... 	Savannah
Debra Carlsen 	... 	Miss Sophie
Heather Clark 	... 	Elizabeth Drayton
Tripp Courtney 	... 	Chancellor
Stan Fink 	... 	Sheriff Thomas Kincaid
Stephen Gilliam 	... 	Patch
Jim Hilton 	... 	William Drayton
Michael Hilton 	... 	Wade Miller
Ed Janostak 	... 	Ed Capp
Richard Kinsey 	... 	Swede
W. Clay Lee 	... 	Timmons
Angela Lewis 	... 	Muriel
Sara Lewis 	... 	Katie
Dave Long 	... 	Scarsdale 

Data Technical :
!!! SAMPLE !!!
Audio.....: English
Subtitles.: None
Format                           : AVI
Format/Info                      : Audio Video Interleave
File size                        : 700 MiB
Duration                         : 1h 36mn
Overall bit rate                 : 1 018 Kbps
Writing application              : VirtualDubMod 1.5.10.2 (build 2542/release)
Writing library                  : VirtualDubMod build 2542/release
Video
ID                               : 0
Format                           : MPEG-4 Visual
Format profile                   : Advanced Simple@L5
Format settings, BVOP            : Yes
Format settings, QPel            : No
Format settings, GMC             : No warppoints
Format settings, Matrix          : Default (H.263)
Muxing mode                      : Packed bitstream
Codec ID                         : XVID
Codec ID/Hint                    : XviD
Duration                         : 1h 36mn
Bit rate                         : 903 Kbps
Width                            : 656 pixels
Height                           : 272 pixels
Display aspect ratio             : 2.40:1
Frame rate                       : 29.970 fps
Color space                      : YUV
Chroma subsampling               : 4:2:0
Bit depth                        : 8 bits
Scan type                        : Progressive
Bits/(Pixel*Frame)               : 0.169
Stream size                      : 620 MiB (89%)
Writing library                  : XviD 57
Audio
ID                               : 1
Format                           : MPEG Audio
Format version                   : Version 1
Format profile                   : Layer 3
Mode                             : Joint stereo
Mode extension                   : MS Stereo
Codec ID                         : 55
Codec ID/Hint                    : MP3
Duration                         : 1h 35mn
Bit rate mode                    : Variable
Bit rate                         : 101 Kbps
Nominal bit rate                 : 112 Kbps
Channel(s)                       : 2 channels
Sampling rate                    : 48.0 KHz
Stream size                      : 69.5 MiB (10%)
Alignment                        : Aligned on interleaves
Interleave, duration             : 24 ms (0.72 video frame)
Interleave, preload duration     : 515 ms
Writing library                  : LAME3.97 
Encoding settings                : -m j -V 4 -q 2 -lowpass 16 --abr 112

Screen : 
http://img4.imageshack.us/img4/1303/acolddayinhell2011s1.jpg 
http://img192.imageshack.us/img192/3379/acolddayinhell2011s2.jpg 
http://img845.imageshack.us/img845/6330/acolddayinhell2011s3.jpg 
http://img541.imageshack.us/img541/2603/acolddayinhell2011s4.jpg 
http://img196.imageshack.us/img196/1948/acolddayinhell2011s5.jpg